<svg width="45" height="45" viewBox="0 0 45 45" fill="none" xmlns="http://www.w3.org/2000/svg">
<mask id="path-1-inside-1_66_463" fill="white">
<path d="M30.1753 43.5438C26.1306 45.016 21.7471 45.2899 17.5506 44.3326C13.3541 43.3753 9.52294 41.2276 6.51677 38.147C3.51059 35.0665 1.45708 31.184 0.602631 26.9654C-0.251823 22.7468 0.129068 18.3712 1.6996 14.3637C3.27013 10.3562 5.9636 6.8869 9.45684 4.37212C12.9501 1.85735 17.0947 0.403888 21.3935 0.186122C25.6923 -0.0316432 29.9626 0.995537 33.6921 3.14442C37.4215 5.29331 40.4518 8.47263 42.4193 12.3009L34.1353 16.5583C32.9871 14.3241 31.2186 12.4687 29.0421 11.2146C26.8656 9.96054 24.3735 9.36108 21.8647 9.48817C19.356 9.61526 16.9372 10.4635 14.8985 11.9311C12.8599 13.3987 11.288 15.4234 10.3714 17.7621C9.45487 20.1009 9.23259 22.6545 9.73124 25.1164C10.2299 27.5784 11.4283 29.8442 13.1827 31.642C14.9371 33.4398 17.173 34.6932 19.622 35.2519C22.0711 35.8105 24.6293 35.6507 26.9898 34.7916L30.1753 43.5438Z"/>
<path d="M43.7373 15.4798C45.3456 20.3453 45.2345 25.6156 43.4225 30.4091C41.6104 35.2025 38.2074 39.2284 33.7826 41.8133L32.0893 38.9147C35.85 36.7178 38.7423 33.2961 40.2824 29.222C41.8224 25.148 41.9169 20.6687 40.55 16.5333L43.7373 15.4798Z"/>
</mask>
<path d="M30.1753 43.5438L47.2763 90.5285L94.2609 73.4275L77.16 26.4429L30.1753 43.5438ZM17.5506 44.3326L28.6706 -4.41518L17.5506 44.3326ZM6.51677 38.147L42.3014 3.22629L42.3014 3.22627L6.51677 38.147ZM1.6996 14.3637L48.2524 32.6076L48.2524 32.6075L1.6996 14.3637ZM9.45684 4.37212L-19.7556 -36.2066L-19.7556 -36.2066L9.45684 4.37212ZM21.3935 0.186122L18.8639 -49.7498L21.3935 0.186122ZM33.6921 3.14442L8.72983 46.4675L8.72987 46.4675L33.6921 3.14442ZM42.4193 12.3009L65.2742 56.7717L109.745 33.9168L86.8901 -10.554L42.4193 12.3009ZM34.1353 16.5583L-10.3355 39.4132L12.5194 83.884L56.9902 61.0291L34.1353 16.5583ZM29.0421 11.2146L54.0043 -32.1084L54.0043 -32.1085L29.0421 11.2146ZM14.8985 11.9311L44.111 52.5098L44.111 52.5098L14.8985 11.9311ZM13.1827 31.642L-22.6019 66.5628L-22.6019 66.5628L13.1827 31.642ZM19.622 35.2519L30.742 -13.4959L30.742 -13.4959L19.622 35.2519ZM26.9898 34.7916L73.9744 17.6906L56.8734 -29.294L9.88877 -12.1931L26.9898 34.7916ZM43.7373 15.4798L91.2109 -0.212745L75.5184 -47.6864L28.0448 -31.9939L43.7373 15.4798ZM43.4225 30.4091L-3.34736 12.729L-3.34736 12.729L43.4225 30.4091ZM33.7826 41.8133L-9.39012 67.0346L15.8311 110.207L59.0039 84.9861L33.7826 41.8133ZM32.0893 38.9147L6.86806 -4.25804L-36.3047 20.9632L-11.0835 64.136L32.0893 38.9147ZM40.55 16.5333L24.8575 -30.9403L-22.6162 -15.2478L-6.92366 32.2259L40.55 16.5333ZM13.0743 -3.44078C18.071 -5.25943 23.4863 -5.59776 28.6706 -4.41518L6.4306 93.0804C20.0078 96.1775 34.1902 95.2914 47.2763 90.5285L13.0743 -3.44078ZM28.6706 -4.41518C33.8548 -3.2326 38.5877 -0.579325 42.3014 3.22629L-29.2679 73.0678C-19.5418 83.0345 -7.14658 89.9833 6.4306 93.0804L28.6706 -4.41518ZM42.3014 3.22627C46.0151 7.03187 48.552 11.8282 49.6075 17.0398L-48.4023 36.891C-45.6378 50.5398 -38.994 63.1011 -29.2679 73.0678L42.3014 3.22627ZM49.6075 17.0398C50.6631 22.2513 50.1926 27.6568 48.2524 32.6076L-44.8532 -3.88018C-49.9344 9.08565 -51.1668 23.2422 -48.4023 36.891L49.6075 17.0398ZM48.2524 32.6075C46.3122 37.5583 42.9848 41.8442 38.6693 44.9508L-19.7556 -36.2066C-31.0576 -28.0704 -39.7719 -16.846 -44.8532 -3.88013L48.2524 32.6075ZM38.6693 44.9508C34.3539 48.0575 29.2337 49.8531 23.9231 50.1221L18.8639 -49.7498C4.95573 -49.0453 -8.45371 -44.3428 -19.7556 -36.2066L38.6693 44.9508ZM23.9231 50.1221C18.6126 50.3911 13.3372 49.1222 8.72983 46.4675L58.6543 -40.1786C46.588 -47.1311 32.772 -50.4544 18.8639 -49.7498L23.9231 50.1221ZM8.72987 46.4675C4.12253 43.8128 0.379033 39.8852 -2.05152 35.1558L86.8901 -10.554C80.5246 -22.9399 70.7206 -33.2262 58.6542 -40.1787L8.72987 46.4675ZM19.5644 -32.1699L11.2804 -27.9125L56.9902 61.0291L65.2742 56.7717L19.5644 -32.1699ZM78.6061 -6.29656C73.0599 -17.0884 64.5176 -26.0508 54.0043 -32.1084L4.0799 54.5377C-2.08037 50.9882 -7.0857 45.7367 -10.3355 39.4132L78.6061 -6.29656ZM54.0043 -32.1085C43.491 -38.1661 31.4531 -41.0617 19.3351 -40.4478L24.3943 59.4241C17.2938 59.7838 10.2402 58.0872 4.07991 54.5377L54.0043 -32.1085ZM19.3351 -40.4478C7.21697 -39.8339 -4.46664 -35.7367 -14.314 -28.6476L44.111 52.5098C38.341 56.6636 31.495 59.0644 24.3943 59.4241L19.3351 -40.4478ZM-14.3139 -28.6476C-24.1613 -21.5585 -31.7541 -11.7788 -36.1814 -0.481718L56.9242 36.006C54.3301 42.6255 49.8811 48.356 44.111 52.5098L-14.3139 -28.6476ZM-36.1814 -0.481718C-40.6086 10.8154 -41.6824 23.1499 -39.2737 35.0421L58.7362 15.1908C60.1475 22.159 59.5184 29.3865 56.9242 36.006L-36.1814 -0.481718ZM-39.2737 35.0421C-36.865 46.9342 -31.0762 57.8788 -22.6019 66.5628L48.9674 -3.27873C53.9329 1.80962 57.3248 8.22261 58.7362 15.1908L-39.2737 35.0421ZM-22.6019 66.5628C-14.1276 75.2467 -3.32773 81.3012 8.50203 83.9997L30.742 -13.4959C37.6736 -11.9147 44.0018 -8.36709 48.9673 -3.27875L-22.6019 66.5628ZM8.50201 83.9997C20.3318 86.6982 32.6889 85.9261 44.0907 81.7762L9.88877 -12.1931C16.5697 -14.6247 23.8103 -15.0771 30.742 -13.4959L8.50201 83.9997ZM-19.9949 51.8926L-16.8093 60.6448L77.16 26.4429L73.9744 17.6906L-19.9949 51.8926ZM-3.73631 31.1723C-5.7232 25.1615 -5.58588 18.6507 -3.34736 12.729L90.1923 48.0891C96.0549 32.5806 96.4145 15.5292 91.2109 -0.212745L-3.73631 31.1723ZM-3.34736 12.729C-1.10884 6.80737 3.09515 1.8339 8.56139 -1.35945L59.0039 84.9861C73.3197 76.6229 84.3297 63.5977 90.1923 48.0891L-3.34736 12.729ZM76.9554 16.5921L75.2621 13.6935L-11.0835 64.136L-9.39012 67.0346L76.9554 16.5921ZM57.3106 82.0875C70.9623 74.1123 81.4616 61.6912 87.0522 46.9021L-6.48746 11.542C-3.97698 4.90094 0.737733 -0.676742 6.86806 -4.25804L57.3106 82.0875ZM87.0522 46.9021C92.6428 32.1129 92.9857 15.8525 88.0236 0.840842L-6.92366 32.2259C-9.15192 25.4848 -8.99793 18.1831 -6.48746 11.542L87.0522 46.9021ZM56.2425 64.007L59.4298 62.9534L28.0448 -31.9939L24.8575 -30.9403L56.2425 64.007Z" fill="#1CAF8D" mask="url(#path-1-inside-1_66_463)"/>
</svg>
