<svg width="59" height="59" viewBox="0 0 59 59" fill="none" xmlns="http://www.w3.org/2000/svg">
<g opacity="0.6">
<mask id="path-1-inside-1_5_2429" fill="white">
<path d="M37.1755 50.544C33.1308 52.0162 28.7472 52.29 24.5507 51.3328C20.3543 50.3755 16.5231 48.2277 13.5169 45.1472C10.5107 42.0667 8.45724 38.1842 7.60279 33.9655C6.74833 29.7469 7.12923 25.3714 8.69976 21.3638C10.2703 17.3563 12.9638 13.8871 16.457 11.3723C19.9502 8.85751 24.0949 7.40405 28.3936 7.18628C32.6924 6.96852 36.9627 7.9957 40.6922 10.1446C44.4217 12.2935 47.452 15.4728 49.4195 19.3011L41.1354 23.5585C39.9872 21.3243 38.2188 19.4689 36.0423 18.2148C33.8657 16.9607 31.3736 16.3612 28.8649 16.4883C26.3561 16.6154 23.9373 17.4637 21.8987 18.9313C19.86 20.3989 18.2881 22.4235 17.3716 24.7623C16.455 27.1011 16.2327 29.6546 16.7314 32.1166C17.2301 34.5786 18.4285 36.8444 20.1829 38.6422C21.9373 40.44 24.1731 41.6934 26.6222 42.252C29.0712 42.8107 31.6294 42.6509 33.9899 41.7917L37.1755 50.544Z"/>
</mask>
<path d="M37.1755 50.544C33.1308 52.0162 28.7472 52.29 24.5507 51.3328C20.3543 50.3755 16.5231 48.2277 13.5169 45.1472C10.5107 42.0667 8.45724 38.1842 7.60279 33.9655C6.74833 29.7469 7.12923 25.3714 8.69976 21.3638C10.2703 17.3563 12.9638 13.8871 16.457 11.3723C19.9502 8.85751 24.0949 7.40405 28.3936 7.18628C32.6924 6.96852 36.9627 7.9957 40.6922 10.1446C44.4217 12.2935 47.452 15.4728 49.4195 19.3011L41.1354 23.5585C39.9872 21.3243 38.2188 19.4689 36.0423 18.2148C33.8657 16.9607 31.3736 16.3612 28.8649 16.4883C26.3561 16.6154 23.9373 17.4637 21.8987 18.9313C19.86 20.3989 18.2881 22.4235 17.3716 24.7623C16.455 27.1011 16.2327 29.6546 16.7314 32.1166C17.2301 34.5786 18.4285 36.8444 20.1829 38.6422C21.9373 40.44 24.1731 41.6934 26.6222 42.252C29.0712 42.8107 31.6294 42.6509 33.9899 41.7917L37.1755 50.544Z" stroke="#FEFEFE" stroke-width="100" mask="url(#path-1-inside-1_5_2429)"/>
</g>
<mask id="path-2-inside-2_5_2429" fill="white">
<path d="M50.7375 22.4799C52.3458 27.3455 52.2347 32.6158 50.4226 37.4092C48.6106 42.2027 45.2076 46.2286 40.7828 48.8135L39.0895 45.9149C42.8502 43.7179 45.7425 40.2962 47.2825 36.2222C48.8226 32.1482 48.9171 27.6688 47.5501 23.5335L50.7375 22.4799Z"/>
</mask>
<path d="M50.7375 22.4799C52.3458 27.3455 52.2347 32.6158 50.4226 37.4092C48.6106 42.2027 45.2076 46.2286 40.7828 48.8135L39.0895 45.9149C42.8502 43.7179 45.7425 40.2962 47.2825 36.2222C48.8226 32.1482 48.9171 27.6688 47.5501 23.5335L50.7375 22.4799Z" stroke="#FEFEFE" stroke-width="100" mask="url(#path-2-inside-2_5_2429)"/>
</svg>
