<?xml version="1.0" encoding="iso-8859-1"?>
<!-- Generator: Adobe Illustrator 19.0.0, SVG Export Plug-In . SVG Version: 6.00 Build 0)  -->
<svg version="1.0" id="Calque_1" xmlns="http://www.w3.org/2000/svg" xmlns:xlink="http://www.w3.org/1999/xlink" x="0px" y="0px"
	 width="487.9px" height="163.7px" viewBox="0 0 487.9 163.7" enable-background="new 0 0 487.9 163.7" xml:space="preserve">
<g>
	<path fill="#5eb3b8" d="M84.1,143.1c-33.5,0-60.5-27.3-60.5-61.2s27.2-61.2,60.7-61.2S145,48,145,81.9
		C144.8,115.7,117.7,143.1,84.1,143.1z"/>
	<polygon fill="#F8F8F8" points="84.1,40.3 53.9,93.3 84.1,93.3 84.1,123.4 114.4,70.4 84.1,70.4 	"/>
	<g>
		<path fill="#424242" d="M239.6,81.9v-0.2c0-17.3-13.4-31.4-32.1-31.4s-32.2,14.2-32.2,31.6V82c0,17.3,13.4,31.4,32.1,31.4
			c3.3,0,6.4-0.5,9.2-1.1l11.1,11.1h20v-0.5l-17.8-18.2C236,99,239.6,90.9,239.6,81.9z M225.6,82c0,10.5-7.5,19-18.2,19
			c-10.8,0-18.3-8.7-18.3-19.3v-0.2c0-10.5,7.5-19,18.2-19c10.8,0,18.3,8.7,18.3,19.3V82z"/>
		<path fill="#424242" d="M274.1,91.7L274.1,91.7c0,6.2-3.3,9.5-8.2,9.5c-5.1,0-8-3.3-8-9.5V65.5h-13.1v30.3
			c0,10.8,5.7,17.3,15.7,17.3c6.7,0,10.6-3.6,13.6-7.5v6.7h13.1V65.7h-13.1V91.7z"/>
		<rect x="292.7" y="51.3" fill="#424242" width="13.1" height="9.2"/>
		<rect x="292.7" y="65.7" fill="#424242" width="13.1" height="46.8"/>
		<polygon fill="#424242" points="312.7,76.3 335.9,76.3 311.9,103.1 311.9,112.5 352.3,112.5 352.3,101.7 328.2,101.7 352.3,75 
			352.3,65.7 312.7,65.7 		"/>
		<path fill="#424242" d="M397.6,86.3h0.2c0,9.7-4.9,14.7-13.1,14.7c-8.2,0-13.1-5.2-13.1-15.1V51.3h-13.4v35
			c0,18,10,27.2,26.2,27.2c16.2,0,26.7-9.2,26.7-27.6V51.3h-13.4V86.3z"/>
		<path fill="#424242" d="M443.2,64.7c-6.9,0-11.3,3.3-14.4,7.5v-6.7h-13.1v57.8h13.1v-16.9c3.1,3.8,7.5,7,14.4,7
			c11,0,21.1-8.5,21.1-24.2v-0.2C464.4,73.4,454,64.7,443.2,64.7z M451.3,89.1c0,7.9-5.2,12.9-11.3,12.9c-6.1,0-11.3-5.2-11.3-12.9
			v-0.2c0-7.9,5.1-12.9,11.3-12.9s11.3,5.2,11.3,12.9V89.1z"/>
	</g>
</g>
</svg>
